<svg width="20" height="21" viewBox="0 0 20 21" fill="none" xmlns="http://www.w3.org/2000/svg">
<path d="M10 19.25C5.175 19.25 1.25 15.325 1.25 10.5C1.25 5.675 5.175 1.75 10 1.75C14.825 1.75 18.75 5.675 18.75 10.5C18.75 15.325 14.825 19.25 10 19.25ZM10 3C5.8625 3 2.5 6.3625 2.5 10.5C2.5 14.6375 5.8625 18 10 18C14.1375 18 17.5 14.6375 17.5 10.5C17.5 6.3625 14.1375 3 10 3Z" fill="white"/>
<path d="M12.5 13.625C12.3875 13.625 12.275 13.6 12.175 13.5375L9.05004 11.6625C8.95748 11.6069 8.88109 11.528 8.82846 11.4337C8.77583 11.3394 8.74879 11.233 8.75004 11.125V6.125C8.75004 5.775 9.02504 5.5 9.37504 5.5C9.72504 5.5 10 5.775 10 6.125V10.775L12.825 12.4625C12.9414 12.5338 13.0313 12.6411 13.0812 12.7682C13.1311 12.8952 13.1382 13.035 13.1015 13.1665C13.0647 13.2979 12.9861 13.4138 12.8776 13.4965C12.7691 13.5793 12.6365 13.6244 12.5 13.625Z" fill="white"/>
</svg>
