<svg width="20" height="21" viewBox="0 0 20 21" fill="none" xmlns="http://www.w3.org/2000/svg">
<path d="M11.1774 4.25C11.1774 3.25544 11.5494 2.30161 12.2116 1.59835C12.8737 0.895088 13.7718 0.5 14.7082 0.5C15.6447 0.5 16.5427 0.895088 17.2049 1.59835C17.8671 2.30161 18.239 3.25544 18.239 4.25V6.75L19.7926 8.14875C19.8843 8.23154 19.9499 8.34221 19.9806 8.46584C20.0113 8.58947 20.0055 8.72011 19.964 8.84014C19.9226 8.96017 19.8475 9.06382 19.7489 9.13711C19.6502 9.2104 19.5328 9.2498 19.4125 9.25H10.0052C9.8848 9.2498 9.76738 9.2104 9.66875 9.13711C9.57012 9.06382 9.49503 8.96017 9.45359 8.84014C9.41216 8.72011 9.40638 8.58947 9.43703 8.46584C9.46768 8.34221 9.5333 8.23154 9.62502 8.14875L11.1786 6.75V4.25H11.1774ZM14.7082 11.75C14.3432 11.7499 13.9871 11.6297 13.6891 11.4059C13.3911 11.182 13.1657 10.8655 13.044 10.5H16.3736C16.2519 10.8657 16.0263 11.1823 15.728 11.4062C15.4298 11.6301 15.0735 11.7502 14.7082 11.75ZM2.94235 5.5H10.004V4.25H2.94235C2.16199 4.25 1.41359 4.57924 0.861795 5.16529C0.309997 5.75134 0 6.5462 0 7.375V17.375C0 18.2038 0.309997 18.9987 0.861795 19.5847C1.41359 20.1708 2.16199 20.5 2.94235 20.5H15.8887C16.6691 20.5 17.4175 20.1708 17.9693 19.5847C18.5211 18.9987 18.831 18.2038 18.831 17.375V10.5H17.6541V17.375C17.6541 17.8723 17.4681 18.3492 17.137 18.7008C16.806 19.0525 16.3569 19.25 15.8887 19.25H2.94235C2.47414 19.25 2.0251 19.0525 1.69402 18.7008C1.36294 18.3492 1.17694 17.8723 1.17694 17.375V9.20375L9.11658 14.1637L9.21309 14.2113C9.29477 14.2432 9.3821 14.2555 9.4688 14.2473C9.5555 14.2391 9.63941 14.2106 9.71447 14.1637L12.7898 12.2412C12.4875 11.9641 12.2413 11.6248 12.066 11.2438L9.41552 12.9L1.17694 7.7525V7.375C1.17694 6.87772 1.36294 6.40081 1.69402 6.04917C2.0251 5.69754 2.47414 5.5 2.94235 5.5Z" fill="white"/>
</svg>
