<svg width="20" height="21" viewBox="0 0 20 21" fill="none" xmlns="http://www.w3.org/2000/svg">
<path d="M12.2655 1.77012C12.2862 1.69238 12.3221 1.61948 12.371 1.55559C12.4199 1.49171 12.4809 1.4381 12.5506 1.39782C12.6202 1.35754 12.6972 1.33139 12.7769 1.32086C12.8567 1.31033 12.9378 1.31562 13.0155 1.33644C14.4943 1.72218 15.8435 2.49519 16.9241 3.57584C18.0048 4.65649 18.7778 6.0057 19.1635 7.48448C19.1843 7.5622 19.1896 7.64327 19.1791 7.72304C19.1686 7.80281 19.1424 7.87972 19.1021 7.94938C19.0619 8.01903 19.0083 8.08007 18.9444 8.12899C18.8805 8.17791 18.8076 8.21376 18.7298 8.23449C18.6782 8.24823 18.6251 8.25509 18.5717 8.2549C18.4368 8.25498 18.3056 8.21051 18.1986 8.1284C18.0916 8.04629 18.0147 7.93113 17.9798 7.80081C17.6487 6.53058 16.9848 5.37163 16.0565 4.44342C15.1283 3.51521 13.9694 2.8513 12.6992 2.52013C12.6214 2.4994 12.5485 2.46355 12.4846 2.41463C12.4207 2.36571 12.3671 2.30468 12.3268 2.23502C12.2866 2.16536 12.2604 2.08845 12.2499 2.00868C12.2394 1.92891 12.2447 1.84785 12.2655 1.77012ZM11.8828 5.78548C13.3675 6.1814 14.3186 7.13244 14.7145 8.61715C14.7493 8.74746 14.8262 8.86262 14.9333 8.94474C15.0403 9.02685 15.1714 9.07132 15.3063 9.07124C15.3597 9.07143 15.4129 9.06457 15.4645 9.05083C15.5422 9.0301 15.6151 8.99425 15.679 8.94533C15.7429 8.89641 15.7965 8.83537 15.8368 8.76572C15.8771 8.69606 15.9032 8.61915 15.9138 8.53938C15.9243 8.4596 15.919 8.37854 15.8982 8.30082C15.388 6.39161 14.1084 5.112 12.1991 4.60179C12.1214 4.58102 12.0404 4.57576 11.9606 4.58632C11.8809 4.59687 11.804 4.62303 11.7343 4.6633C11.5937 4.74463 11.4911 4.8785 11.4491 5.03547C11.4072 5.19244 11.4293 5.35964 11.5106 5.50029C11.592 5.64095 11.7258 5.74353 11.8828 5.78548ZM19.989 15.6836C19.8142 17.0175 19.1596 18.2421 18.1476 19.1285C17.1355 20.0149 15.8353 20.5024 14.49 20.5C6.50009 20.5 1.01758e-05 13.9999 1.01758e-05 6.00997C-0.00256716 4.6651 0.484526 3.36528 1.3703 2.35331C2.25608 1.34134 3.47996 0.686436 4.81334 0.510924C5.12028 0.473623 5.43103 0.536913 5.69894 0.691288C5.96684 0.845664 6.17743 1.08279 6.29907 1.36706L8.45216 6.17324C8.54722 6.39082 8.58656 6.62867 8.56661 6.86527C8.54665 7.10187 8.46804 7.32977 8.33787 7.52836C8.32474 7.54857 8.31043 7.568 8.29501 7.58652L6.14499 10.1437C6.13193 10.1702 6.12514 10.1994 6.12514 10.2289C6.12514 10.2585 6.13193 10.2876 6.14499 10.3141C6.92663 11.9141 8.6042 13.5795 10.2267 14.3601C10.2538 14.3724 10.2834 14.3783 10.3131 14.3772C10.3429 14.3762 10.372 14.3682 10.3981 14.354L12.9175 12.2111C12.9355 12.1954 12.9546 12.1811 12.9747 12.1682C13.1724 12.0364 13.3998 11.956 13.6364 11.9342C13.8731 11.9125 14.1114 11.9501 14.3298 12.0437L19.1503 14.204C19.4307 14.3283 19.6637 14.5396 19.8148 14.8066C19.9659 15.0736 20.027 15.3822 19.989 15.6866V15.6836ZM18.7758 15.5325C18.7792 15.4899 18.7691 15.4472 18.7469 15.4106C18.7248 15.374 18.6917 15.3452 18.6523 15.3285L13.8308 13.1682C13.8045 13.1581 13.7762 13.1537 13.748 13.1555C13.7199 13.1572 13.6924 13.1651 13.6675 13.1784L11.1491 15.3213C11.1308 15.3366 11.1114 15.3509 11.092 15.3642C10.8866 15.5012 10.6491 15.5826 10.4029 15.6004C10.1566 15.6183 9.90993 15.5721 9.68687 15.4662C7.81337 14.5611 5.946 12.7111 5.04089 10.8549C4.93443 10.6332 4.88705 10.3877 4.90331 10.1422C4.91958 9.89676 4.99896 9.65967 5.13375 9.45389C5.14689 9.43343 5.16156 9.41398 5.17763 9.39573L7.32663 6.83855C7.33891 6.81183 7.34527 6.78276 7.34527 6.75335C7.34527 6.72394 7.33891 6.69487 7.32663 6.66814L5.17763 1.85788C5.16344 1.81927 5.13793 1.78585 5.10442 1.762C5.07092 1.73815 5.03099 1.72497 4.98987 1.7242H4.9664C3.92857 1.86226 2.97647 2.37334 2.28789 3.16201C1.59931 3.95067 1.22132 4.96301 1.22452 6.00997C1.22452 13.3244 7.17561 19.2754 14.49 19.2754C15.5371 19.2786 16.5496 18.9005 17.3383 18.2117C18.127 17.5229 18.6379 16.5706 18.7758 15.5325Z" fill="white"/>
</svg>
