<svg width="47" height="47" viewBox="0 0 47 47" fill="none" xmlns="http://www.w3.org/2000/svg">
<path d="M23.5 18.8C25.993 18.8 28.384 17.8096 30.1468 16.0468C31.9096 14.284 32.9 11.893 32.9 9.4C32.9 6.90696 31.9096 4.51604 30.1468 2.7532C28.384 0.990354 25.993 0 23.5 0C21.007 0 18.616 0.990354 16.8532 2.7532C15.0904 4.51604 14.1 6.90696 14.1 9.4C14.1 11.893 15.0904 14.284 16.8532 16.0468C18.616 17.8096 21.007 18.8 23.5 18.8ZM8.225 25.85C9.78315 25.85 11.2775 25.231 12.3793 24.1293C13.481 23.0275 14.1 21.5331 14.1 19.975C14.1 18.4169 13.481 16.9225 12.3793 15.8207C11.2775 14.719 9.78315 14.1 8.225 14.1C6.66685 14.1 5.17252 14.719 4.07075 15.8207C2.96897 16.9225 2.35 18.4169 2.35 19.975C2.35 21.5331 2.96897 23.0275 4.07075 24.1293C5.17252 25.231 6.66685 25.85 8.225 25.85ZM44.65 19.975C44.65 21.5331 44.031 23.0275 42.9292 24.1293C41.8275 25.231 40.3331 25.85 38.775 25.85C37.2169 25.85 35.7225 25.231 34.6207 24.1293C33.519 23.0275 32.9 21.5331 32.9 19.975C32.9 18.4169 33.519 16.9225 34.6207 15.8207C35.7225 14.719 37.2169 14.1 38.775 14.1C40.3331 14.1 41.8275 14.719 42.9292 15.8207C44.031 16.9225 44.65 18.4169 44.65 19.975ZM23.5 21.15C26.6163 21.15 29.605 22.3879 31.8085 24.5915C34.0121 26.795 35.25 29.7837 35.25 32.9V47H11.75V32.9C11.75 29.7837 12.9879 26.795 15.1915 24.5915C17.395 22.3879 20.3837 21.15 23.5 21.15ZM7.05 32.9C7.05 31.2714 7.285 29.6993 7.7268 28.2141L7.3273 28.247C5.31307 28.4682 3.45136 29.4251 2.09917 30.9343C0.746975 32.4434 -0.000525833 34.3987 2.77529e-07 36.425V47H7.05V32.9ZM47 47V36.425C47.0003 34.3297 46.2008 32.3132 44.7648 30.7873C43.3289 29.2614 41.3647 28.341 39.2732 28.2141C39.7126 29.6993 39.95 31.2714 39.95 32.9V47H47Z" fill="#8538AE"/>
</svg>
