<svg width="47" height="47" viewBox="0 0 47 47" fill="none" xmlns="http://www.w3.org/2000/svg">
<g clip-path="url(#clip0_16_287)">
<path d="M23.5 47C36.4573 47 47 36.4573 47 23.5C47 10.5427 36.4573 0 23.5 0C10.5427 0 0 10.5427 0 23.5C0 36.4573 10.5427 47 23.5 47ZM23.5 1.46875C35.648 1.46875 45.5312 11.352 45.5312 23.5C45.5312 35.648 35.648 45.5312 23.5 45.5312C11.352 45.5312 1.46875 35.648 1.46875 23.5C1.46875 11.352 11.352 1.46875 23.5 1.46875Z" fill="#8538AE"/>
<path d="M29.4646 31.972C29.5326 32.0407 29.6136 32.0953 29.7028 32.1325C29.7921 32.1698 29.8878 32.1889 29.9845 32.1889C30.0812 32.1889 30.177 32.1698 30.2662 32.1325C30.3555 32.0953 30.4364 32.0407 30.5045 31.972C30.6421 31.8343 30.7195 31.6475 30.7195 31.4528C30.7195 31.258 30.6421 31.0713 30.5045 30.9336L23.5 23.9306V13.6875C23.5 13.4927 23.4226 13.3059 23.2849 13.1682C23.1472 13.0305 22.9604 12.9531 22.7656 12.9531C22.5709 12.9531 22.3841 13.0305 22.2463 13.1682C22.1086 13.3059 22.0312 13.4927 22.0312 13.6875V24.2346C22.0312 24.4299 22.1091 24.6165 22.2457 24.7545L29.4646 31.972Z" fill="#8538AE"/>
<path d="M5.875 24.9688C6.68617 24.9688 7.34375 24.3112 7.34375 23.5C7.34375 22.6888 6.68617 22.0312 5.875 22.0312C5.06383 22.0312 4.40625 22.6888 4.40625 23.5C4.40625 24.3112 5.06383 24.9688 5.875 24.9688Z" fill="#8538AE"/>
<path d="M41.125 24.9688C41.9362 24.9688 42.5938 24.3112 42.5938 23.5C42.5938 22.6888 41.9362 22.0312 41.125 22.0312C40.3138 22.0312 39.6562 22.6888 39.6562 23.5C39.6562 24.3112 40.3138 24.9688 41.125 24.9688Z" fill="#8538AE"/>
<path d="M23.5 7.34375C24.3112 7.34375 24.9688 6.68617 24.9688 5.875C24.9688 5.06383 24.3112 4.40625 23.5 4.40625C22.6888 4.40625 22.0312 5.06383 22.0312 5.875C22.0312 6.68617 22.6888 7.34375 23.5 7.34375Z" fill="#8538AE"/>
<path d="M23.5 42.5938C24.3112 42.5938 24.9688 41.9362 24.9688 41.125C24.9688 40.3138 24.3112 39.6562 23.5 39.6562C22.6888 39.6562 22.0312 40.3138 22.0312 41.125C22.0312 41.9362 22.6888 42.5938 23.5 42.5938Z" fill="#8538AE"/>
<path d="M11.75 13.2188C12.5612 13.2188 13.2188 12.5612 13.2188 11.75C13.2188 10.9388 12.5612 10.2812 11.75 10.2812C10.9388 10.2812 10.2812 10.9388 10.2812 11.75C10.2812 12.5612 10.9388 13.2188 11.75 13.2188Z" fill="#8538AE"/>
<path d="M35.25 36.7188C36.0612 36.7188 36.7188 36.0612 36.7188 35.25C36.7188 34.4388 36.0612 33.7812 35.25 33.7812C34.4388 33.7812 33.7812 34.4388 33.7812 35.25C33.7812 36.0612 34.4388 36.7188 35.25 36.7188Z" fill="#8538AE"/>
<path d="M36.7188 13.2188C37.5299 13.2188 38.1875 12.5612 38.1875 11.75C38.1875 10.9388 37.5299 10.2812 36.7188 10.2812C35.9076 10.2812 35.25 10.9388 35.25 11.75C35.25 12.5612 35.9076 13.2188 36.7188 13.2188Z" fill="#8538AE"/>
<path d="M11.75 36.7188C12.5612 36.7188 13.2188 36.0612 13.2188 35.25C13.2188 34.4388 12.5612 33.7812 11.75 33.7812C10.9388 33.7812 10.2812 34.4388 10.2812 35.25C10.2812 36.0612 10.9388 36.7188 11.75 36.7188Z" fill="#8538AE"/>
</g>
<defs>
<clipPath id="clip0_16_287">
<rect width="47" height="47" fill="white"/>
</clipPath>
</defs>
</svg>
