<svg width="47" height="47" viewBox="0 0 47 47" fill="none" xmlns="http://www.w3.org/2000/svg">
<path d="M36.0338 0C35.6183 0 35.2198 0.154743 34.926 0.430187C34.6322 0.705631 34.4672 1.07921 34.4672 1.46875C34.4672 1.85829 34.6322 2.23187 34.926 2.50731C35.2198 2.78276 35.6183 2.9375 36.0338 2.9375H41.6516L26.6342 17.0169L18.3437 9.24137C18.1982 9.1046 18.0253 8.99608 17.835 8.92203C17.6447 8.84799 17.4406 8.80988 17.2346 8.80988C17.0285 8.80988 16.8245 8.84799 16.6342 8.92203C16.4438 8.99608 16.271 9.1046 16.1254 9.24137L0.459426 23.9289C0.16526 24.2047 -9.80161e-09 24.5787 0 24.9688C9.8016e-09 25.3588 0.16526 25.7328 0.459426 26.0086C0.753592 26.2844 1.15257 26.4394 1.56858 26.4394C1.98459 26.4394 2.38357 26.2844 2.67773 26.0086L17.2346 12.3581L25.525 20.1336C25.6706 20.2704 25.8434 20.3789 26.0338 20.453C26.2241 20.527 26.4281 20.5651 26.6342 20.5651C26.8403 20.5651 27.0443 20.527 27.2346 20.453C27.4249 20.3789 27.5978 20.2704 27.7433 20.1336L43.8668 5.01431V10.2812C43.8668 10.6708 44.0318 11.0444 44.3256 11.3198C44.6194 11.5953 45.0179 11.75 45.4334 11.75C45.8489 11.75 46.2474 11.5953 46.5412 11.3198C46.8349 11.0444 47 10.6708 47 10.2812V1.46875C47 1.07921 46.8349 0.705631 46.5412 0.430187C46.2474 0.154743 45.8489 0 45.4334 0H36.0338ZM39.167 20.5625C38.7515 20.5625 38.353 20.7172 38.0592 20.9927C37.7654 21.2681 37.6004 21.6417 37.6004 22.0312V45.5312C37.6004 45.9208 37.7654 46.2944 38.0592 46.5698C38.353 46.8453 38.7515 47 39.167 47C39.5825 47 39.981 46.8453 40.2747 46.5698C40.5685 46.2944 40.7336 45.9208 40.7336 45.5312V22.0312C40.7336 21.6417 40.5685 21.2681 40.2747 20.9927C39.981 20.7172 39.5825 20.5625 39.167 20.5625ZM14.1014 26.4375C13.6859 26.4375 13.2874 26.5922 12.9936 26.8677C12.6998 27.1431 12.5348 27.5167 12.5348 27.9062V45.5312C12.5348 45.9208 12.6998 46.2944 12.9936 46.5698C13.2874 46.8453 13.6859 47 14.1014 47C14.5169 47 14.9153 46.8453 15.2091 46.5698C15.5029 46.2944 15.668 45.9208 15.668 45.5312V27.9062C15.668 27.5167 15.5029 27.1431 15.2091 26.8677C14.9153 26.5922 14.5169 26.4375 14.1014 26.4375ZM25.0676 33.7812C25.0676 33.3917 25.2326 33.0181 25.5264 32.7427C25.8202 32.4672 26.2187 32.3125 26.6342 32.3125C27.0497 32.3125 27.4482 32.4672 27.7419 32.7427C28.0357 33.0181 28.2008 33.3917 28.2008 33.7812V45.5312C28.2008 45.9208 28.0357 46.2944 27.7419 46.5698C27.4482 46.8453 27.0497 47 26.6342 47C26.2187 47 25.8202 46.8453 25.5264 46.5698C25.2326 46.2944 25.0676 45.9208 25.0676 45.5312V33.7812ZM0.00197884 36.7188C0.00197884 36.3292 0.167031 35.9556 0.460826 35.6802C0.75462 35.4047 1.15309 35.25 1.56858 35.25C1.98407 35.25 2.38254 35.4047 2.67633 35.6802C2.97013 35.9556 3.13518 36.3292 3.13518 36.7188V45.5312C3.13518 45.9208 2.97013 46.2944 2.67633 46.5698C2.38254 46.8453 1.98407 47 1.56858 47C1.15309 47 0.75462 46.8453 0.460826 46.5698C0.167031 46.2944 0.00197884 45.9208 0.00197884 45.5312V36.7188Z" fill="#8538AE"/>
</svg>
